<svg xmlns="http://www.w3.org/2000/svg" fill-rule="evenodd" stroke-linejoin="round" stroke-width="28.2" preserveAspectRatio="xMidYMid" version="1.2" viewBox="999 999 6241 1948"><path fill="#e85e6e" d="M1610.96 1334.28c-39.52 0-80.56 3.04-118.56 12.16-39.52 7.6-79.04 18.24-115.52 33.44-38 16.72-72.96 34.96-106.4 57.76-33.44 21.28-63.84 47.12-92.72 76s-54.72 57.76-76 91.2c-22.8 33.44-41.04 68.4-57.76 106.4-15.2 36.48-25.84 76-34.96 114-7.6 41.04-10.64 80.56-10.64 120.08 0 41.04 3.04 80.56 10.64 120.08 9.12 39.52 19.76 77.52 34.96 115.52 16.72 36.48 34.96 71.44 57.76 104.88 21.28 33.44 47.12 66.88 76 94.24 28.88 28.88 59.28 54.72 92.72 76 33.44 22.8 68.4 41.04 106.4 56.24 36.48 15.2 76 27.36 115.52 34.96 38 7.6 77.52 12.16 118.56 12.16 39.52 0 80.56-4.56 120.08-12.16s77.52-19.76 115.52-34.96c36.48-15.2 71.44-33.44 104.88-56.24 33.44-21.28 65.36-48.64 92.72-76 28.88-28.88 54.72-60.8 77.52-94.24 21.28-33.44 41.04-68.4 56.24-104.88 15.2-38 27.36-76 34.96-115.52s12.16-79.04 12.16-120.08c0-39.52-4.56-79.04-12.16-120.08-7.6-38-19.76-77.52-34.96-114-15.2-38-34.96-72.96-56.24-106.4-22.8-33.44-48.64-62.32-77.52-91.2-27.36-28.88-59.28-54.72-92.72-76-33.44-22.8-68.4-41.04-104.88-57.76-38-15.2-76-25.84-115.52-33.44-39.52-9.12-79.04-12.16-120.08-12.16z"/><path fill="#fff" d="M1995.52 1943.8c0 212.8-174.8 386.08-386.08 386.08-212.8 0-384.56-173.28-384.56-386.08 0-211.28 171.76-384.56 384.56-384.56 211.28 0 386.08 173.28 386.08 384.56zm-386.08-460.56c-253.84 0-462.08 206.72-462.08 460.56 0 255.36 208.24 462.08 462.08 462.08 255.36 0 463.6-206.72 463.6-462.08 0-253.84-208.24-460.56-463.6-460.56z"/><path fill="#fff" d="M1536.48 1870.84l-158.08 304 305.52-158.08 156.56-304zm72.96 115.52c-22.8 0-42.56-19.76-42.56-42.56s19.76-42.56 42.56-42.56S1652 1921 1652 1943.8s-19.76 42.56-42.56 42.56z"/><path fill="#414042" d="M2820 1192v-17c0-11-1-24-1-40-1-15-2-31-2-49-1-19-1-35-3-50h240l7 129c6-10 15-24 27-40 13-16 29-32 51-49 21-16 48-30 81-42s72-18 118-18c42 0 78 6 108 17 31 11 56 25 77 41 21 17 37 34 49 53 12 18 21 35 26 50 5 13 9 26 12 39 4 13 6 29 8 48 2 18 2 41 3 68 0 27 1 60 1 100v461h-255v-530c0-18-1-35-2-50s-5-30-12-43c-9-20-23-36-43-51-19-15-45-22-78-22-27 0-52 6-75 18-24 12-42 28-55 48-8 11-15 28-21 49-7 21-10 48-10 81v500h-251z"/><path fill="#414042" d="M4489 1040v509c0 19 0 38 2 60 1 21 5 42 13 61s22 35 40 47c18 13 44 19 77 19 41 0 72-7 93-21 22-14 38-33 48-58 10-24 16-52 17-84 2-32 3-66 3-102v-431h257v563c1 46 2 82 2 110 1 27 2 48 2 64 1 15 1 27 1 35v19c1 12 2 22 2 31 1 8 2 19 5 31h-244l-8-113c-7 9-16 21-28 36s-28 30-47 45c-20 15-44 27-73 38s-63 16-104 16c-56 0-108-11-153-34-45-22-79-49-103-81-13-17-24-36-32-59-8-22-13-44-17-66-3-21-5-41-6-61 0-19-1-33-1-44v-530z"/><path fill="#414042" d="M5676 1200c0-27-1-53-3-80-2-26-3-53-6-80h242l8 110c7-9 17-21 29-36 13-14 29-28 49-42s46-25 76-36c31-10 67-15 110-15 48 0 89 7 122 20 32 13 59 28 79 45 20 18 36 35 46 54 10 18 17 32 22 42 18-34 38-61 60-82 23-21 46-37 71-48 24-12 48-19 72-23s48-6 70-6c43 0 80 6 111 17s57 24 77 39c20 14 36 30 48 45 12 16 20 28 25 36 11 19 19 39 25 61 5 21 10 43 13 65 2 22 4 44 4 66v541h-252v-502c0-22-1-45-4-68s-9-44-19-63c-9-18-24-33-43-44-19-12-45-17-78-17-37 0-66 8-87 23-20 16-36 37-46 62s-16 54-18 86-2 64-2 96v427h-252v-507c0-17-1-36-3-57-1-22-7-42-16-61s-22-35-41-49-45-20-80-20c-40 0-70 7-92 22-21 14-37 32-46 52-10 20-15 41-17 63s-2 41-2 55v502h-252z"/><path fill="#414042" d="M3029 2551c0-4-1-10-3-18-1-7-4-15-8-23-5-8-11-15-20-20-9-6-21-9-36-9-22 0-39 5-51 16s-20 23-25 37c-6 15-9 29-10 43s-1 24-1 30c0 18 1 35 4 50 2 16 6 30 13 43 6 12 14 22 25 30 11 7 25 11 42 11 13 0 24-2 34-7 9-4 16-10 22-17 5-7 9-15 12-24s4-17 5-25h63c-1 16-4 32-11 46-6 15-15 28-27 39-11 10-25 19-42 26-17 6-35 9-56 9-5 0-13 0-22-1s-18-3-28-6-21-7-31-13c-11-6-20-13-29-23-5-6-10-13-15-20-5-8-9-17-13-27s-7-22-9-36c-2-13-3-28-3-46 0-35 4-64 14-87 10-24 22-42 37-56s31-24 49-30 35-8 52-8c6 0 13 0 21 1 9 1 18 3 28 6s19 7 29 12c9 5 18 13 26 22 12 14 20 28 22 41 3 14 5 25 6 34z"/><path fill="#414042" d="M3433 2611c0 18 2 35 6 50 4 16 10 31 18 43 8 13 19 22 31 29 13 7 28 11 46 11 12 0 24-2 37-7 12-5 22-12 32-23 10-10 18-24 24-41s9-39 9-64c0-42-9-74-27-96-18-21-41-32-71-32-10 0-21 2-33 5-12 4-24 11-34 21-11 9-20 22-27 40-7 17-11 38-11 64zm-66 4c0-20 3-41 8-63 6-21 15-40 28-58 13-17 31-31 53-43 22-11 49-16 82-16 34 0 61 5 83 17 21 12 38 27 50 45 13 17 21 36 25 57 5 20 7 39 7 57 0 24-3 48-10 70-7 21-18 41-32 57s-31 29-53 39c-21 9-46 14-75 14-28 0-52-5-73-14-20-9-38-21-52-37-14-15-24-34-31-55-6-22-10-45-10-70z"/><path fill="#414042" d="M4021 2488l-2-45h64v49c8-13 17-24 26-31 10-8 19-14 29-17 9-4 19-7 28-8 8-1 17-1 24-1 19 0 34 2 47 6 12 4 23 9 31 16 9 6 15 13 20 20 5 8 9 14 12 21 2-5 6-11 12-18 5-7 12-14 21-21 8-6 19-12 32-17s28-7 47-7c12 0 25 1 39 4 15 3 28 9 41 18 12 9 23 21 31 37 8 15 12 35 12 60v226h-63v-216c0-15-2-26-4-33-2-8-5-14-8-18-5-8-13-14-24-20-11-7-24-10-40-10-9 0-19 2-26 5-8 2-15 5-21 9s-11 7-15 11-7 8-9 11c-3 5-6 11-8 18s-4 14-5 21c-1 6-1 13-1 19-1 6-1 11-1 14v189h-63v-223c0-21-6-38-18-52-12-15-31-22-56-22-11 0-20 2-29 5-8 3-15 6-21 10s-11 8-15 12-7 8-9 10c-7 10-11 21-12 34-2 12-3 24-3 35v191h-63z"/><path fill="#414042" d="M4931 2622c0 10 1 22 3 36 1 15 5 28 11 41 7 13 16 24 28 33 13 10 30 14 53 14 4 0 9 0 15-1 5 0 11-2 18-4s13-6 20-10c6-4 12-10 18-18s10-17 14-26c4-10 7-20 9-30 1-9 3-18 3-27 1-8 1-16 1-22 0-15-1-30-4-45-2-15-7-28-14-39-7-12-16-21-28-28-12-8-27-11-46-11-25 0-44 6-58 17-13 12-24 25-30 40s-10 30-11 45c-1 16-2 27-2 35zm-60-124v-20c-1-5-1-9-1-15 0-5-1-12-1-20h64l1 56c8-13 17-24 27-32 11-8 21-14 32-18 11-5 21-8 31-9s18-2 24-2c18 0 36 3 53 10 17 6 32 16 45 30 13 15 24 33 32 54 8 22 12 49 12 80s-4 58-13 81c-8 23-20 42-34 57-14 14-30 25-49 32-18 7-37 10-57 10-25 0-46-4-64-14-18-9-31-21-40-36v167h-62z"/><path fill="#414042" d="M5700 2616c-6-1-11-1-17-1-5-1-12-1-19-1-6 0-16 1-30 1-13 1-27 3-40 8-14 4-26 11-36 20s-16 23-16 40c0 5 1 11 3 18 2 6 6 13 11 19s12 11 21 15 21 6 35 6c32 0 56-12 72-36 3-6 6-12 8-17s4-11 5-18c0-7 1-15 2-23 0-9 0-19 1-31zm7 164c-2-9-3-17-4-25s-2-17-2-26c-7 14-16 25-25 33s-18 14-28 19c-9 4-18 7-27 8s-17 1-24 1c-19 0-36-2-51-7-14-5-27-12-37-21s-17-20-22-32c-6-12-8-25-8-39 0-6 0-14 2-22 2-9 5-18 9-26 4-9 10-18 18-26 7-9 17-17 30-24 9-5 19-9 29-12 11-3 22-5 32-7 11-1 21-2 31-3h46c6 0 14 1 24 2v-28c-1-7-1-14-2-20 0-5-1-10-3-15-2-4-4-8-7-12-6-8-15-14-27-17s-22-5-31-5c-17 0-29 2-38 7s-16 10-20 17c-5 6-7 12-8 19-2 6-2 11-2 14h-63c1-9 2-19 5-30 2-11 9-22 18-34 7-7 14-13 23-17 9-5 18-9 28-11 10-3 19-5 29-6s20-2 29-2c12 0 24 1 36 3 13 2 24 5 35 9s20 10 29 16c8 6 15 13 19 22 5 10 9 20 10 28 1 9 2 16 2 23l-3 161v11c0 6 1 13 1 21s1 16 1 26l3 27z"/><path fill="#414042" d="M6131 2680c0 6 1 13 3 20 1 7 5 14 11 20 5 6 13 11 22 15 10 4 22 6 38 6 13 0 24-2 34-5 10-2 18-8 25-17s10-19 10-31c0-8-1-14-4-20-3-5-8-10-14-13-6-4-13-7-23-9-9-3-20-6-33-8-17-4-34-9-49-13-16-5-30-10-42-18-11-7-21-16-27-27-7-11-11-25-11-43 0-15 3-29 10-42 6-13 15-23 27-32 11-9 25-16 41-20 16-5 34-8 54-8 10 0 22 1 34 3s23 5 35 9c11 4 21 9 30 16 10 6 17 15 22 25 4 9 7 18 8 26v23h-64c1-13-1-23-6-30-4-8-10-13-17-17s-14-6-22-7c-7-1-14-1-20-1h-14c-8 1-15 2-23 6-8 3-16 7-22 14-6 6-9 16-9 28 0 7 2 14 5 19s7 9 12 12 10 6 16 7c5 2 10 3 14 5 24 5 43 10 58 13 15 4 27 8 37 11 9 3 17 7 23 10 5 4 11 7 16 12 9 9 16 19 20 30 3 11 5 21 5 32 0 19-4 36-13 51s-20 27-32 34c-15 9-31 15-48 18-17 4-35 5-52 5s-34-2-49-6c-16-3-30-9-43-18-12-9-22-20-29-34s-11-31-11-51z"/><path fill="#414042" d="M6682 2680c0 6 1 13 2 20 2 7 6 14 11 20 6 6 14 11 23 15 10 4 22 6 38 6 12 0 24-2 34-5 9-2 18-8 24-17 8-9 11-19 11-31 0-8-1-14-4-20-3-5-8-10-14-13-6-4-13-7-23-9-9-3-20-6-33-8-17-4-34-9-50-13-15-5-29-10-41-18-11-7-21-16-28-27-6-11-10-25-10-43 0-15 3-29 10-42 6-13 15-23 27-32 11-9 25-16 41-20 16-5 34-8 53-8 11 0 23 1 35 3 13 2 23 5 34 9 12 4 22 9 31 16 10 6 17 15 22 25 4 9 7 18 7 26 1 8 1 15 1 23h-64c1-13-1-23-6-30-4-8-10-13-17-17s-14-6-22-7c-7-1-14-1-20-1h-14c-8 1-15 2-23 6-8 3-16 7-22 14-6 6-9 16-9 28 0 7 1 14 5 19 3 5 7 9 12 12s10 6 16 7c5 2 10 3 14 5 24 5 43 10 58 13 15 4 27 8 36 11 10 3 18 7 24 10 5 4 11 7 16 12 9 9 16 19 19 30 4 11 6 21 6 32 0 19-4 36-13 51s-20 27-32 34c-15 9-31 15-48 18-18 4-35 5-52 5s-34-2-50-6c-15-3-29-9-42-18-12-9-22-20-29-34s-11-31-11-51z"/></svg>